# xmcd
#
# Track frame offsets:
#	150
#	20036
#	36607
#	54867
#	71991
#	97318
#	114771
#	131654
#	153715
#	171642
#	189434
#	210198
#
# Disc length: 3033 seconds
#
# Revision: 1
# Processed by: cddbd v1.5PL3 Copyright (c) Steve Scherf et al.
# Submitted via: EasyCDDAExtractor 5.0.6
#
DISCID=b20bd70c
DTITLE=Various Artist - Outside looking in
DYEAR=2001
DGENRE=
TTITLE0=Jenny Lee
TTITLE1=He knows the rules
TTITLE2=Outside looking in
TTITLE3=You move me so
TTITLE4=How long
TTITLE5=Nobody
TTITLE6=Blues begins at home
TTITLE7=Walk away
TTITLE8=Get a job
TTITLE9=Insomniac
TTITLE10=Out of my reach
TTITLE11=Dave Hole - Living on borrowed time
EXTD=
EXTT0=
EXTT1=
EXTT2=
EXTT3=
EXTT4=
EXTT5=
EXTT6=
EXTT7=
EXTT8=
EXTT9=
EXTT10=
EXTT11=
PLAYORDER=
